<?xml version="1.0" encoding="UTF-8"?>
<svg width="128" height="32" viewBox="0 0 128 32" fill="none" xmlns="http://www.w3.org/2000/svg" role="img" aria-label="Ocean Eats Logo">
  <defs>
    <linearGradient id="oceanGrad" x1="0" y1="0" x2="128" y2="32" gradientUnits="userSpaceOnUse">
      <stop stop-color="#2563EB" stop-opacity="0.15"/>
      <stop offset="1" stop-color="#6B7280" stop-opacity="0.15"/>
    </linearGradient>
  </defs>
  <rect x="0" y="0" width="128" height="32" rx="8" fill="url(#oceanGrad)"/>
  <g transform="translate(8,6)">
    <circle cx="10" cy="10" r="10" fill="#2563EB"/>
    <path d="M6 10c0-2.21 1.79-4 4-4 1.82 0 3.36 1.22 3.86 2.88.28.89-.46 1.76-1.38 1.62A2.5 2.5 0 0 0 10 9c-1.38 0-2.5 1.12-2.5 2.5S8.62 14 10 14c1.02 0 1.9-.61 2.29-1.49.39-.89 1.7-.95 2.15-.08A4 4 0 0 1 6 10Z" fill="#F59E0B"/>
  </g>
  <g transform="translate(32,8)">
    <text x="0" y="14" font-family="Inter, ui-sans-serif, system-ui, -apple-system, Segoe UI, Roboto, Ubuntu, Cantarell, Noto Sans, Helvetica Neue, Arial" font-size="16" font-weight="700" fill="#111827">Ocean</text>
    <text x="54" y="14" font-family="Inter, ui-sans-serif, system-ui, -apple-system, Segoe UI, Roboto, Ubuntu, Cantarell, Noto Sans, Helvetica Neue, Arial" font-size="16" font-weight="700" fill="#2563EB">Eats</text>
  </g>
</svg>
